<?xml version="1.0" encoding="UTF-8"?>
<svg width="123" height="89" viewBox="0 0 123 89" version="1.1" xmlns="http://www.w3.org/2000/svg" xmlns:xlink="http://www.w3.org/1999/xlink">
    <!-- Generator: Sketch 52.6 (67491) - http://www.bohemiancoding.com/sketch -->
    <title>Group 3</title>
    <desc>Created with Sketch.</desc>
    <g id="Symbols" stroke="none" stroke-width="1" fill="none" fill-rule="evenodd">
        <g id="Mini-trolley/Empty" transform="translate(-155.000000, -214.000000)">
            <g id="Group-3" transform="translate(135.000000, 199.000000)">
                <g id="Group-5" transform="translate(0.000000, 0.611655)">
                    <ellipse id="Oval" fill="#B7B7B8" fill-rule="nonzero" cx="86.880814" cy="97.1284662" rx="56.119186" ry="6.25290555"></ellipse>
                    <g id="Group-4" transform="translate(79.813953, 13.339532)" fill-rule="nonzero">
                        <path d="M24.9418605,83.372074 C38.7168696,83.372074 49.8837209,79.1467652 49.8837209,60.4984895 C49.8837209,53.2691318 43.9544428,44.8197844 41.3115802,37.3220619 C37.1371248,25.4792565 34.4231492,15.8406941 24.9418605,15.8406941 C15.4909285,15.8406941 13.049021,25.5305966 8.86848769,37.3220619 C6.19984777,44.849134 2.84217094e-14,53.2325713 2.84217094e-14,60.4984895 C2.84217094e-14,79.1467652 11.1668513,83.372074 24.9418605,83.372074 Z" id="Oval" fill="#D8D8D8"></path>
                        <path d="M20.7848837,2.50116222 C23.5388808,5.27859479 24.9158794,10.246995 24.9158794,17.406363" id="Path" stroke="#979797" stroke-width="1.66399999" stroke-linecap="round" stroke-linejoin="round"></path>
                        <path d="M13.497748,11.0046943 C16.3818938,11.0060737 19.8652176,9.45977398 23.9477195,6.36579522 C19.5721487,3.33384996 16.0873638,1.81725701 13.4933648,1.81601638 C9.60236625,1.81415543 2.29201409,4.32110588 2.2930901,6.57680138 C2.2941661,8.83249689 9.1715292,11.0026252 13.497748,11.0046943 Z" id="Oval" fill="#939393" transform="translate(13.120405, 6.410355) rotate(10.000000) translate(-13.120405, -6.410355) "></path>
                    </g>
                    <g id="Group-2" transform="translate(60.607156, 59.029722) rotate(40.000000) translate(-60.607156, -59.029722) translate(11.139133, 23.596591)">
                        <path d="M49.4680233,69.6156818 C76.7884581,69.6156818 98.9360465,47.4061471 98.9360465,20.0092978 L0,20.0092978 C0,47.4061471 22.1475884,69.6156818 49.4680233,69.6156818 Z" id="Oval" stroke="#838383" stroke-width="1.66399999" fill="#838383" fill-rule="nonzero" stroke-linecap="round" stroke-linejoin="round"></path>
                        <path d="M49.4680233,63.7796366 C74.0334563,63.7796366 93.9476744,43.8097189 93.9476744,19.175577 L4.98837209,19.175577 C4.98837209,43.8097189 24.9025902,63.7796366 49.4680233,63.7796366 Z" id="Oval-Copy" fill="#C6C6C6" fill-rule="nonzero"></path>
                        <path d="M49.4680233,62.1121951 C73.1151223,62.1121951 92.2848837,42.8888164 92.2848837,19.175577 L6.65116279,19.175577 C6.65116279,42.8888164 25.8209242,62.1121951 49.4680233,62.1121951 Z" id="Oval-Copy-2" fill="#B1B1B1" fill-rule="nonzero"></path>
                        <g id="Group" transform="translate(49.052326, 35.433131) rotate(-40.000000) translate(-49.052326, -35.433131) translate(23.279070, 11.672090)">
                            <path d="M21.4516331,28.4138185 C21.4212575,30.6857396 20.3489059,31.8719639 18.7988287,32.6003311 C18.21801,32.8726692 17.5469848,32.2905237 17.681374,31.6206451 C18.0375972,29.8431365 19.1891094,28.794909 21.4516331,28.4138185" id="Fill-20" fill="#505050"></path>
                            <path d="M11.809582,31.1786898 C11.3880051,33.6443547 10.8163911,35.1577503 8.90548831,35.62566 C8.59436829,35.7015126 7.81196588,35.2281195 7.83037535,35.0755005 C8.06877797,33.0439315 9.48262515,32.0898343 11.809582,31.1786898" id="Fill-22" fill="#515151"></path>
                            <path d="M50.8029532,29.4977789 C49.8631498,31.7660444 49.6229063,33.6011279 47.3355298,33.7537469 C47.0649106,33.7711108 46.4675234,33.175257 46.5107856,32.9632354 C46.8863388,31.1464296 48.3057088,30.3787652 50.8029532,29.4977789" id="Fill-24" fill="#515151"></path>
                            <path d="M40.7150247,32.4250478 C39.926179,35.1347203 39.6758102,36.8308931 37.5513576,37.2293475 C37.2917841,37.2777835 36.6290432,36.7157435 36.6474527,36.4717359 C36.7974898,34.4072669 38.4331711,33.8836101 40.7150247,32.4250478" id="Fill-26" fill="#515151"></path>
                            <path d="M15.6325842,0.0636978678 C15.1659042,2.27895801 14.724077,3.70005104 13.0985209,4.27031603 C12.8702435,4.35073801 12.1577971,3.88008662 12.1476718,3.64521787 C12.0648292,1.65568762 13.405959,0.874314923 15.6325842,0.0636978678" id="Fill-28" fill="#4E4E4E"></path>
                            <path d="M42.3160042,22.1540636 C41.5289994,24.567637 40.5984007,25.9274997 38.6469971,26.454812 C38.8642288,23.9608166 38.8642288,23.9608166 42.3160042,22.1540636" id="Fill-30" fill="#4E4E4E"></path>
                            <path d="M5.58920667,3.98609742 C5.52201211,6.09443287 4.72764354,7.5758424 2.38227726,8.08670478 C2.04262257,5.42455429 4.25175878,5.0069083 5.58920667,3.98609742" id="Fill-32" fill="#4B4C4B"></path>
                            <path d="M20.362621,11.947417 C21.02168,9.33644415 22.2090907,8.22424465 24.500149,7.58909375 C23.9846839,9.84456488 23.1774287,11.3012995 20.362621,11.947417" id="Fill-34" fill="#4D4E4E"></path>
                            <path d="M14.5597724,10.7197937 C13.9964427,13.1233144 13.2324498,14.3844773 11.7210324,15.0159727 C11.5249716,15.0973086 10.7821495,14.5690823 10.781229,14.3214192 C10.7729448,12.2405003 12.3856142,11.7488295 14.5597724,10.7197937" id="Fill-36" fill="#4D4D4D"></path>
                            <path d="M23.154601,18.6243609 C22.6207264,20.6696383 22.1356369,22.0541758 20.4962737,22.5220856 C20.2679963,22.5869715 19.6052555,22.0870757 19.6006531,21.8403265 C19.5619932,19.8279491 21.0191026,19.242148 23.154601,18.6243609" id="Fill-38" fill="#4B4B4B"></path>
                            <path d="M25.8238819,40.2251578 C26.5510559,37.5867684 27.8157863,36.5696131 30.0847533,35.6401908 C29.4514676,38.063817 28.7086456,39.5662459 25.8238819,40.2251578" id="Fill-40" fill="#4B4B4B"></path>
                            <path d="M20.3833316,38.6973229 C19.6128954,40.8275916 19.347799,42.4835534 17.3190756,42.7257333 C17.1257762,42.7485804 16.6176749,42.0914962 16.6581757,41.8063637 C16.8984193,40.1037938 18.1916844,39.4046708 20.3833316,38.6973229" id="Fill-42" fill="#4C4C4C"></path>
                            <path d="M33.3122093,14.5837045 C32.8970758,17.4441683 32.1413671,18.7464561 29.7573409,19.1257189 C29.7858756,16.8291229 31.2880882,16.11355 33.3122093,14.5837045" id="Fill-44" fill="#484848"></path>
                            <path d="M32.0298978,25.9760271 C31.2907576,27.8668576 30.7900201,29.5054555 28.7346029,29.6507635 C28.5716791,29.662644 28.0985558,28.8227826 28.2090126,28.6336081 C29.008904,27.2728316 29.8999223,25.9431272 32.0298978,25.9760271" id="Fill-46" fill="#4C4C4C"></path>
                            <path d="M35.1711054,47.31134 C34.853542,44.7268699 36.2793554,43.9281333 38.5032191,42.9886583 C38.2077472,45.3620208 37.1758965,46.4532009 35.1711054,47.31134" id="Fill-48" fill="#494949"></path>
                            <path d="M0.343704776,17.5529208 C0.267305482,14.9940394 1.74282438,14.5663407 3.38771038,13.4852133 C3.43373405,15.9280311 2.43317944,16.8455729 0.343704776,17.5529208" id="Fill-50" fill="#464646"></path>
                            <path d="M8.4176374,24.7002419 C9.62529853,22.5964759 10.6212508,21.6743647 12.6545766,20.9706724 C11.8979474,23.3559153 11.2922759,24.868397 8.4176374,24.7002419" id="Fill-52" fill="#474747"></path>
                            <path d="M48.5970386,40.0373542 C48.4267511,42.5103303 47.5071981,43.4406664 45.6027386,43.8656235 C45.1526271,41.6558467 46.6723287,41.1166538 48.5970386,40.0373542" id="Fill-54" fill="#464646"></path>
                        </g>
                    </g>
                </g>
            </g>
        </g>
    </g>
</svg>
